<svg id="settings" width="84" height="20" viewBox="0 0 84 20" fill="none"
                    xmlns="http://www.w3.org/2000/svg">
                    <path
                        d="M36.024 16.128C35.4373 16.128 34.888 16.08 34.376 15.984C33.864 15.8773 33.3893 15.7173 32.952 15.504C32.5147 15.28 32.12 15.008 31.768 14.688L32.264 13.68C32.84 14.16 33.416 14.5013 33.992 14.704C34.5787 14.9067 35.2613 15.008 36.04 15.008C36.9467 15.008 37.6507 14.832 38.152 14.48C38.6533 14.1173 38.904 13.6107 38.904 12.96C38.904 12.5653 38.776 12.2507 38.52 12.016C38.2747 11.7707 37.9333 11.5787 37.496 11.44C37.0693 11.2907 36.584 11.152 36.04 11.024C35.496 10.9067 34.9787 10.7733 34.488 10.624C33.9973 10.464 33.56 10.2667 33.176 10.032C32.8027 9.79733 32.5093 9.49867 32.296 9.136C32.0827 8.77333 31.976 8.32 31.976 7.776C31.976 7.12533 32.1467 6.55467 32.488 6.064C32.8293 5.56267 33.3093 5.17333 33.928 4.896C34.5467 4.61867 35.2773 4.48 36.12 4.48C36.6427 4.48 37.144 4.53867 37.624 4.656C38.104 4.76267 38.5467 4.92267 38.952 5.136C39.368 5.34933 39.736 5.61067 40.056 5.92L39.544 6.928C39.0213 6.46933 38.4827 6.13333 37.928 5.92C37.3733 5.70667 36.7707 5.6 36.12 5.6C35.2347 5.6 34.5413 5.78667 34.04 6.16C33.5387 6.53333 33.288 7.056 33.288 7.728C33.288 8.144 33.4 8.48 33.624 8.736C33.848 8.992 34.1627 9.2 34.568 9.36C34.9733 9.50933 35.4373 9.648 35.96 9.776C36.5147 9.904 37.048 10.0427 37.56 10.192C38.072 10.3413 38.5253 10.528 38.92 10.752C39.3253 10.9653 39.6453 11.248 39.88 11.6C40.1147 11.9413 40.232 12.3787 40.232 12.912C40.232 13.5627 40.0613 14.128 39.72 14.608C39.3787 15.088 38.8933 15.4613 38.264 15.728C37.6347 15.9947 36.888 16.128 36.024 16.128ZM48.8088 15.04C48.4568 15.3707 48.0034 15.632 47.4488 15.824C46.9048 16.016 46.3448 16.112 45.7688 16.112C44.9368 16.112 44.2168 15.9467 43.6088 15.616C43.0114 15.2853 42.5474 14.8107 42.2168 14.192C41.8968 13.5627 41.7368 12.816 41.7368 11.952C41.7368 11.12 41.8968 10.3893 42.2168 9.76C42.5368 9.13067 42.9794 8.64 43.5448 8.288C44.1208 7.936 44.7821 7.76 45.5288 7.76C46.2434 7.76 46.8568 7.92 47.3688 8.24C47.8808 8.54933 48.2701 8.99733 48.5368 9.584C48.8141 10.1707 48.9528 10.8747 48.9528 11.696V11.936H42.8728V11.088H48.2168L47.8008 11.68C47.8221 10.7413 47.6354 10.0213 47.2408 9.52C46.8568 9.01867 46.2914 8.768 45.5448 8.768C44.7661 8.768 44.1528 9.04533 43.7048 9.6C43.2674 10.144 43.0488 10.9013 43.0488 11.872C43.0488 12.9173 43.2781 13.7067 43.7368 14.24C44.2061 14.7733 44.8888 15.04 45.7848 15.04C46.2541 15.04 46.7021 14.9653 47.1288 14.816C47.5661 14.656 47.9821 14.416 48.3768 14.096L48.8088 15.04ZM49.737 8.976V7.952H54.905V8.976H49.737ZM54.873 14.848V15.952C54.6917 16.0053 54.5103 16.0427 54.329 16.064C54.1583 16.096 53.9663 16.112 53.753 16.112C53.0063 16.112 52.409 15.8987 51.961 15.472C51.5237 15.0453 51.305 14.4053 51.305 13.552V5.888L52.601 5.424V13.376C52.601 13.8027 52.6597 14.1333 52.777 14.368C52.905 14.6027 53.0757 14.768 53.289 14.864C53.5023 14.9493 53.7423 14.992 54.009 14.992C54.169 14.992 54.313 14.9813 54.441 14.96C54.569 14.9387 54.713 14.9013 54.873 14.848ZM55.3776 8.976V7.952H60.5456V8.976H55.3776ZM60.5136 14.848V15.952C60.3323 16.0053 60.151 16.0427 59.9696 16.064C59.799 16.096 59.607 16.112 59.3936 16.112C58.647 16.112 58.0496 15.8987 57.6016 15.472C57.1643 15.0453 56.9456 14.4053 56.9456 13.552V5.888L58.2416 5.424V13.376C58.2416 13.8027 58.3003 14.1333 58.4176 14.368C58.5456 14.6027 58.7163 14.768 58.9296 14.864C59.143 14.9493 59.383 14.992 59.6496 14.992C59.8096 14.992 59.9536 14.9813 60.0816 14.96C60.2096 14.9387 60.3536 14.9013 60.5136 14.848ZM62.1074 16V7.952H63.4034V16H62.1074ZM61.9794 4.544H63.5634V6.016H61.9794V4.544ZM65.9199 16V10.208C65.9199 9.83467 65.9092 9.46133 65.8879 9.088C65.8772 8.704 65.8452 8.32533 65.7919 7.952H67.0239L67.1679 9.616L67.0079 9.744C67.2319 9.09333 67.6052 8.60267 68.1279 8.272C68.6505 7.93067 69.2532 7.76 69.9359 7.76C71.8665 7.76 72.8319 8.82133 72.8319 10.944V16H71.5359V11.008C71.5359 10.2613 71.3865 9.71733 71.0879 9.376C70.7892 9.024 70.3199 8.848 69.6799 8.848C68.9332 8.848 68.3359 9.07733 67.8879 9.536C67.4399 9.99467 67.2159 10.6133 67.2159 11.392V16H65.9199ZM78.8153 19.568C77.5993 19.568 76.5433 19.2907 75.6473 18.736L75.8713 17.68C76.3726 17.968 76.8473 18.176 77.2953 18.304C77.7433 18.432 78.2499 18.496 78.8153 18.496C79.5833 18.496 80.1646 18.288 80.5593 17.872C80.9646 17.4667 81.1673 16.8587 81.1673 16.048V13.872L81.3433 13.664C81.2153 14.0907 81.0126 14.464 80.7353 14.784C80.4686 15.0933 80.1379 15.3333 79.7433 15.504C79.3486 15.6747 78.9006 15.76 78.3993 15.76C77.6846 15.76 77.0553 15.5947 76.5113 15.264C75.9779 14.9227 75.5566 14.4533 75.2473 13.856C74.9486 13.2587 74.7993 12.56 74.7993 11.76C74.7993 10.96 74.9486 10.2613 75.2473 9.664C75.5566 9.06667 75.9779 8.60267 76.5113 8.272C77.0553 7.93067 77.6846 7.76 78.3993 7.76C79.1459 7.76 79.7753 7.94667 80.2873 8.32C80.8099 8.68267 81.1619 9.19467 81.3433 9.856L81.1513 9.68V7.952H82.4473V15.936C82.4473 17.1413 82.1379 18.048 81.5193 18.656C80.9113 19.264 80.0099 19.568 78.8153 19.568ZM78.6553 14.672C79.4339 14.672 80.0419 14.416 80.4793 13.904C80.9273 13.3813 81.1513 12.6667 81.1513 11.76C81.1513 10.8533 80.9273 10.144 80.4793 9.632C80.0419 9.10933 79.4339 8.848 78.6553 8.848C77.8659 8.848 77.2419 9.10933 76.7833 9.632C76.3353 10.144 76.1113 10.8533 76.1113 11.76C76.1113 12.6773 76.3353 13.392 76.7833 13.904C77.2419 14.416 77.8659 14.672 78.6553 14.672Z"
                        fill="#C2C2C2" />
                    <path opacity="0.24" fill-rule="evenodd" clip-rule="evenodd"
                        d="M13.4684 3.72984L12.7255 3.2963C12.7255 3.2963 11.9499 1.18529 11.8845 1.04241C11.6372 0.446706 10.9608 0 10.2828 0H8.42097C7.74577 0 7.07222 0.445749 6.80795 1.06812C6.75378 1.18551 5.98673 3.29574 5.98673 3.29574L5.25274 3.73208C5.25274 3.73208 3.01723 3.34267 2.86067 3.32789C2.22115 3.24416 1.49608 3.60662 1.15706 4.19382L0.22616 5.80618C-0.11144 6.39092 -0.0621848 7.1971 0.344673 7.73715C0.419296 7.84283 1.8639 9.57203 1.8639 9.57203C1.8639 9.57203 1.85186 9.85686 1.85186 10C1.85186 10.303 1.86248 10.429 1.86248 10.429C1.86248 10.429 0.419296 12.1572 0.328229 12.2853C-0.0641449 12.7973 -0.112893 13.6066 0.22616 14.1938L1.15706 15.8062C1.49462 16.3909 2.21732 16.7514 2.88838 16.6691C3.01723 16.6573 5.23083 16.2672 5.23083 16.2672L5.97602 16.6921C5.97602 16.6921 6.75378 18.8145 6.81919 18.9574C7.06642 19.5532 7.74286 20 8.42097 20H10.2828C10.9579 20 11.6314 19.5544 11.8957 18.9321C11.9499 18.8147 12.7255 16.7 12.7255 16.7L13.4565 16.269C13.4565 16.269 15.8311 16.6709 15.8364 16.6714C16.4824 16.7558 17.2076 16.3934 17.5467 15.8062L18.4776 14.1938C18.8151 13.6091 18.766 12.803 18.3592 12.263C18.2846 12.1573 16.8393 10.4365 16.8393 10.4365C16.8393 10.4365 16.8519 10.146 16.8519 10C16.8519 9.69704 16.8429 9.56952 16.8429 9.56952C16.8429 9.56952 18.2846 7.8427 18.3757 7.71452C18.7679 7.20254 18.8166 6.39338 18.4776 5.80618L17.5467 4.19382C17.2091 3.60908 16.4863 3.24864 15.8151 3.33097C15.6863 3.34276 13.4684 3.72984 13.4684 3.72984ZM10.9423 4.30503L11.0766 4.75439L11.508 4.93843C11.9156 5.11235 12.3007 5.33528 12.6549 5.60181L13.0302 5.88422L13.4872 5.77567C14.151 5.618 15.7116 5.35656 15.8613 5.33828C15.9481 5.32769 16.6964 6.62368 16.6438 6.69352C16.5532 6.81399 15.5466 8.03475 15.0782 8.5308L14.7565 8.8714L14.8124 9.33653C14.8386 9.55534 14.8519 9.77673 14.8519 10C14.8519 10.2233 14.8386 10.4447 14.8124 10.6635L14.7565 11.1286L15.0782 11.4692C15.5466 11.9652 16.5532 13.186 16.6438 13.3065C16.6964 13.3763 15.9126 14.668 15.8613 14.6617C15.7116 14.6434 14.151 14.382 13.4872 14.2243L13.0302 14.1158L12.6549 14.3982C12.3007 14.6647 11.9156 14.8877 11.508 15.0616L11.0766 15.2456L10.9423 15.695C10.747 16.3484 10.1933 17.8297 10.1343 17.9684C10.1001 18.0487 8.60366 18.0487 8.56947 17.9683C8.5105 17.8297 7.95692 16.3484 7.76164 15.6951L7.62731 15.2457L7.1959 15.0616C6.78824 14.8877 6.40322 14.6648 6.04897 14.3983L5.67364 14.1159L5.21666 14.2245C4.55278 14.3822 2.99208 14.6435 2.84241 14.6618C2.75565 14.6724 2.00741 13.3763 2.05996 13.3065C2.15061 13.186 3.15718 11.9654 3.62557 11.4694L3.94723 11.1288L3.89139 10.6637C3.86512 10.4448 3.85186 10.2233 3.85186 10C3.85186 9.77667 3.86512 9.55522 3.89139 9.33635L3.94723 8.87119L3.62557 8.53058C3.15718 8.0346 2.15061 6.81396 2.05996 6.69349C2.00741 6.62365 2.75565 5.32763 2.84241 5.33821C2.99208 5.35647 4.55278 5.61785 5.21666 5.77554L5.67364 5.88408L6.04897 5.6017C6.40322 5.33517 6.78824 5.11226 7.1959 4.93836L7.62731 4.75432L7.76164 4.30495C7.95692 3.65163 8.5105 2.17034 8.56947 2.03168C8.60366 1.9513 10.1001 1.95127 10.1343 2.03164C10.1933 2.1703 10.747 3.65163 10.9423 4.30503ZM9.35186 13C7.69501 13 6.35186 11.6569 6.35186 10C6.35186 8.34315 7.69501 7 9.35186 7C11.0087 7 12.3519 8.34315 12.3519 10C12.3519 11.6569 11.0087 13 9.35186 13ZM10.3519 10C10.3519 10.5523 9.90415 11 9.35186 11C8.79958 11 8.35186 10.5523 8.35186 10C8.35186 9.44771 8.79958 9 9.35186 9C9.90415 9 10.3519 9.44771 10.3519 10Z"
                        fill="black" />
                </svg>